<?xml version="1.0" encoding="UTF-8" standalone="no"?>
<!-- Generator: Adobe Illustrator 25.2.3, SVG Export Plug-In . SVG Version: 6.00 Build 0)  -->

<svg
   version="1.1"
   id="Layer_1_copy"
   x="0px"
   y="0px"
   viewBox="0 0 128 128"
   style="enable-background:new 0 0 128 128;"
   xml:space="preserve"
   sodipodi:docname="blue_pencil.svg"
   inkscape:version="1.2.2 (b0a8486541, 2022-12-01)"
   xmlns:inkscape="http://www.inkscape.org/namespaces/inkscape"
   xmlns:sodipodi="http://sodipodi.sourceforge.net/DTD/sodipodi-0.dtd"
   xmlns="http://www.w3.org/2000/svg"
   xmlns:svg="http://www.w3.org/2000/svg"><defs
   id="defs43" /><sodipodi:namedview
   id="namedview41"
   pagecolor="#ffffff"
   bordercolor="#000000"
   borderopacity="0.25"
   inkscape:showpageshadow="2"
   inkscape:pageopacity="0.0"
   inkscape:pagecheckerboard="0"
   inkscape:deskcolor="#d1d1d1"
   showgrid="false"
   inkscape:zoom="6.71875"
   inkscape:cx="35.497674"
   inkscape:cy="64"
   inkscape:window-width="1920"
   inkscape:window-height="1016"
   inkscape:window-x="0"
   inkscape:window-y="32"
   inkscape:window-maximized="1"
   inkscape:current-layer="Layer_1_copy" />
<g
   id="g38"
   transform="matrix(-1,0,0,1,128.00523,0)">
	<path
   style="fill:#ffecb3"
   d="m 123.87,118.8 -6.18,-16.49 -4.25,-11.35 c -0.96,-2.93 -1.14,-4.14 -2.77,-5.77 L 98.85,73.37 73.39,98.83 85.22,110.66 c 0.97,0.97 2.83,1.8 5.76,2.76 l 11.35,4.25 16.49,6.18 c 3.11,1.01 6.06,-1.94 5.05,-5.05 z"
   id="path2" />
	<g
   id="g8">
		<path
   style="fill:none"
   d="M 85.65,106.83 85.62,106.8 Z"
   id="path4" />
		<path
   style="fill:none"
   d="m 106.8,85.6 0.21,0.21 c -0.07,-0.07 -0.12,-0.16 -0.19,-0.23 z"
   id="path6" />
	</g>
	<path
   style="fill:#616161"
   d="m 118.82,123.85 -13.66,-5.12 c 0,0 5.64,-0.32 9.45,-4.13 3.81,-3.81 4.14,-9.46 4.14,-9.46 l 5.12,13.66 c 1.01,3.11 -1.94,6.06 -5.05,5.05 z"
   id="path10" />
	<path
   style="fill:#ef5350"
   d="M 43.18,17.71 37.77,37 17.73,43.16 6.41,31.85 C 3.29,28.73 1.81,22.51 10.08,14.24 L 15.07,9.25 C 22.22,2.1 28.75,3.27 31.87,6.39 Z"
   id="path12" />
	<path
   style="fill:#81aec0;fill-opacity:1"
   d="M 34.27,44.64 44.64,34.27 104.87,94.5 c 0,0 1.23,5.12 -1.9,8.25 -3.13,3.13 -8.47,2.12 -8.47,2.12 z"
   id="path14" />
	<path
   style="fill:#659cae;fill-opacity:1"
   d="m 26.73,52.18 58.58,58.58 c 9.46,2.06 9.05,-6.03 9.05,-6.03 L 34.27,44.64 Z"
   id="path16" />
	<path
   style="fill:#a2c2d2;fill-opacity:1"
   d="m 44.65,34.26 60.09,60.09 c 0,0 10.82,0 5.87,-9.21 L 52.19,26.72 Z"
   id="path18" />
	<g
   id="g22">
		<polygon
   style="fill:#2f7888;fill-opacity:1"
   points="33.66,45.43 35.07,44.02 96.07,105.02 94.5,104.86 94.27,106.04 "
   id="polygon20" />
	</g>
	<g
   id="g26">
		<polygon
   style="display:inline;fill:#399aac;fill-opacity:1"
   points="105.11,96.15 40.15,31.19 41.57,29.78 106.04,94.25 104.87,94.49 "
   id="polygon24" />
	</g>
	<path
   style="opacity:0.2;fill:#4e342e"
   d="m 52.19,26.72 c 0,0 -5.47,8.09 -10,12.67 -8.67,8.74 -15.46,12.79 -15.46,12.79 l 1.75,1.75 C 30.97,52.96 37.34,50.05 43.7,43.7 50.1,37.3 53.12,31.05 54.13,28.66 Z"
   id="path28" />
	<path
   style="fill:#94d1e0"
   d="m 23.49,51.9 c 0.56,0.56 1.35,0.81 2.13,0.68 0,0 8.19,-2.5 16.33,-10.64 8.14,-8.14 10.83,-16.07 10.83,-16.07 0.13,-0.78 -0.12,-1.58 -0.68,-2.14 l -8.58,-8.58 c -0.36,-0.36 -0.86,-0.55 -1.36,-0.49 -0.17,0.02 -0.34,0.04 -0.52,0.07 -0.68,0.1 -1.22,0.6 -1.41,1.26 0,0 -3.92,7.6 -10.38,14.05 -6.46,6.45 -14.34,10.21 -14.34,10.21 -0.66,0.18 -1.17,0.71 -1.27,1.39 0,0.01 0,0.01 0,0.02 -0.08,0.54 0.1,1.08 0.48,1.46 z"
   id="path30" />
	
		<ellipse
   transform="matrix(0.7071,-0.7071,0.7071,0.7071,-6.2293,15.0504)"
   style="fill:#ff8383"
   cx="15.05"
   cy="15.04"
   rx="15.03"
   ry="4.4499998"
   id="ellipse32" />
	<path
   style="fill:#b9e4ea"
   d="m 41.61,21.74 c -3.29,6.3 -8.7,11.47 -15.14,14.46 -0.42,0.19 -1.01,0.33 -1.26,-0.05 -0.19,-0.3 -0.02,-0.68 0.17,-0.98 0.84,-1.3 2,-2.35 3.12,-3.42 2.92,-2.8 5.6,-5.84 8.01,-9.08 1.23,-1.65 2.38,-3.35 3.46,-5.1 0.6,-0.96 1.67,-2.99 3.04,-1.56 1.19,1.23 -0.77,4.52 -1.4,5.73 z"
   id="path34" />
	<path
   style="fill:#b9e4ea"
   d="m 37.88,33.47 c -0.26,0.27 -0.53,0.54 -0.66,0.89 -0.13,0.35 -0.08,0.8 0.22,1.02 0.25,0.19 0.59,0.17 0.9,0.12 1.73,-0.27 3.26,-1.25 4.61,-2.35 2.95,-2.39 5.45,-5.71 5.69,-9.5 0.03,-0.45 0.02,-0.92 -0.18,-1.32 -1.27,-2.51 -3.96,3.1 -4.49,3.89 -1.77,2.63 -3.88,4.99 -6.09,7.25 z"
   id="path36" />
</g>
</svg>
