<?xml version="1.0" encoding="UTF-8" standalone="no"?>
<!-- Generator: Adobe Illustrator 25.2.3, SVG Export Plug-In . SVG Version: 6.00 Build 0)  -->

<svg
   version="1.1"
   id="Layer_4"
   x="0px"
   y="0px"
   viewBox="0 0 128 128"
   style="enable-background:new 0 0 128 128;"
   xml:space="preserve"
   sodipodi:docname="blue_shoppingbags.svg"
   inkscape:version="1.2.2 (b0a8486541, 2022-12-01)"
   xmlns:inkscape="http://www.inkscape.org/namespaces/inkscape"
   xmlns:sodipodi="http://sodipodi.sourceforge.net/DTD/sodipodi-0.dtd"
   xmlns="http://www.w3.org/2000/svg"
   xmlns:svg="http://www.w3.org/2000/svg"><defs
   id="defs22589" /><sodipodi:namedview
   id="namedview22587"
   pagecolor="#ffffff"
   bordercolor="#000000"
   borderopacity="0.25"
   inkscape:showpageshadow="2"
   inkscape:pageopacity="0.0"
   inkscape:pagecheckerboard="0"
   inkscape:deskcolor="#d1d1d1"
   showgrid="false"
   inkscape:zoom="6.46875"
   inkscape:cx="64.077295"
   inkscape:cy="64"
   inkscape:window-width="1920"
   inkscape:window-height="1016"
   inkscape:window-x="0"
   inkscape:window-y="32"
   inkscape:window-maximized="1"
   inkscape:current-layer="g22584" />
<g
   id="g22584">
	<g
   id="g22556">
		<path
   style="fill:none;stroke:#00796B;stroke-width:3;stroke-miterlimit:10;"
   d="M26.96,39.45c-0.75-5.68-2.02-15.69-1.18-21.2    s3.04-10.59,7.63-12.6c3.97-1.73,8.92,0.1,11.78,4.38c1.63,2.44,2.56,5.45,3.35,8.43c1.35,5.12,2.64,12.12,3.29,17.39"
   id="path22534" />
		<polygon
   style="fill:#699eb0;fill-opacity:1"
   points="30.71,116.64 6.54,106.57 12.15,81.83 10.95,25.45 72.11,18.27 72.11,23.61 86.66,25.45       "
   id="polygon22536" />
		<polygon
   style="fill:#82aec0;fill-opacity:1"
   points="91.85,107.44 30.7,116.7 25.5,84.32 25.5,34.7 86.66,25.45 86.66,75.06   "
   id="polygon22538" />
		<polygon
   style="fill:#263238;"
   points="25.5,34.7 25.5,29.12 10.95,25.45 72.23,18.65 74.19,22.99 86.66,25.45   "
   id="polygon22540" />
		<path
   style="fill:#2f7889;fill-opacity:1"
   d="M6.54,106.57c0.42,0,14.48-11.15,14.48-11.15l9.68,21.28l-2.08-33.93L25.47,34.7l-4.09,51.95    L6.54,106.57z"
   id="path22542" />
		<g
   id="g22546">
			<path
   style="fill:#26A69A;"
   d="M72.05,19.29l1.48,3.42l0.19,0.45l0.47,0.12l7.45,1.91L26.5,33.54v-4.42v-0.78l-0.76-0.19     l-9.28-2.34L72.05,19.29 M72.68,18.21l-61.72,7.24l14.55,3.67v5.59l61.15-9.26l-12.21-3.14L72.68,18.21L72.68,18.21z"
   id="path22544" />
		</g>
		<path
   style="fill:none;stroke:#61DE9F;stroke-width:3;stroke-miterlimit:10;"
   d="M43.95,38.45C43.2,32.78,35.39,11,50.34,8.22    c11.3-2.1,16.29,21.97,16.95,27.25"
   id="path22548" />
		<path
   style="fill:#2f7889;fill-opacity:1"
   d="M45.81,40.03c-0.87-2.93-1.78-8.85-1.82-9.11l2.96-0.45c0.01,0.06,1.07,6.1,2.23,8.93L45.81,40.03z    "
   id="path22550" />
		<path
   style="fill:#2f7889;fill-opacity:1"
   d="M69.13,36.48c-0.87-2.93-1.78-8.85-1.82-9.11l2.96-0.45c0.01,0.06,1.24,6.2,2.27,8.94L69.13,36.48z    "
   id="path22552" />
		<polygon
   style="fill:#2f7889;fill-opacity:1"
   points="46.84,114.26 55.24,99.71 51.23,60.92 84.8,54.39 66.8,111.28   "
   id="polygon22554" />
	</g>
	<g
   id="g22580">
		<path
   style="fill:none;stroke:#D7578A;stroke-width:3;stroke-miterlimit:10;"
   d="M73.07,57.05c0,0-3.78-20.07,8.81-18.74    c6.85,0.72,6.57,16.65,6.57,16.65"
   id="path22558" />
		<polygon
   style="fill:#6fa2b4;fill-opacity:1"
   points="74.46,123.99 55.89,116.22 60.21,97.2 59.29,53.86 106.29,48.34 106.29,52.45     117.47,53.86   "
   id="polygon22560" />
		<polygon
   style="fill:#8fb6c7;fill-opacity:1"
   points="121.46,116.88 74.46,124 70.47,99.11 70.47,60.98 117.47,53.86 117.47,92   "
   id="polygon22562" />
		<polygon
   style="fill:#263238;"
   points="70.47,60.98 66.71,58.1 59.29,53.86 106.29,48.34 110.56,51.03 117.47,53.86   "
   id="polygon22564" />
		<g
   id="g22568">
			<path
   style="fill:#D7578A;"
   d="M106.11,49.37l8.05,3.97l-43.48,6.58l-8.49-5.4L106.11,49.37 M106.29,48.34l-47,5.52l11.18,7.12     l47-7.12L106.29,48.34L106.29,48.34z"
   id="path22566" />
		</g>
		<g
   id="g22572">
			<path
   style="fill:#2f7889;fill-opacity:1"
   d="M86.36,64.81c-0.67-2.24-1.36-6.79-1.39-6.98l2.64-0.34c0.01,0.05,0.68,4.63,1.3,6.74L86.36,64.81     z"
   id="path22570" />
		</g>
		<g
   id="g22576">
			<path
   style="fill:#2f7889;fill-opacity:1"
   d="M104.25,62.06c-0.67-2.24-1.36-6.79-1.39-6.98l2.61-0.33c0.01,0.05,0.55,4.77,1.17,6.88     L104.25,62.06z"
   id="path22574" />
		</g>
		<path
   style="fill:none;stroke:#FF9F9F;stroke-width:3;stroke-miterlimit:10;"
   d="M84.88,64.91c-0.58-4.36-6.52-22.74,4.68-24.29    c8.75-1.21,12.52,16.89,13.03,20.94"
   id="path22578" />
	</g>
	<polygon
   style="fill:#2f7889;fill-opacity:1"
   points="55.89,116.22 65.38,108.18 74.46,124 70.49,99.26 70.53,61.1 69.41,60.64 65.87,99.43  "
   id="polygon22582" />
</g>
</svg>
